<svg width="48" height="48" viewBox="0 0 48 48" fill="none" xmlns="http://www.w3.org/2000/svg">
<path d="M39.8 41.9492L26.65 28.7992C25.65 29.6659 24.484 30.3409 23.152 30.8242C21.8201 31.3076 20.4027 31.5492 18.9 31.5492C15.2946 31.5492 12.2433 30.2992 9.74595 27.7992C7.24865 25.2992 6 22.2826 6 18.7492C6 15.2159 7.25 12.1992 9.75 9.69922C12.25 7.19922 15.275 5.94922 18.825 5.94922C22.375 5.94922 25.3917 7.19922 27.875 9.69922C30.3583 12.1992 31.6 15.2184 31.6 18.7567C31.6 20.1851 31.3667 21.5659 30.9 22.8992C30.4333 24.2326 29.7333 25.4826 28.8 26.6492L42 39.7492L39.8 41.9492ZM18.85 28.5492C21.5583 28.5492 23.8604 27.5909 25.7563 25.6742C27.6521 23.7576 28.6 21.4492 28.6 18.7492C28.6 16.0492 27.6521 13.7409 25.7563 11.8242C23.8604 9.90755 21.5583 8.94922 18.85 8.94922C16.1139 8.94922 13.7882 9.90755 11.8729 11.8242C9.95763 13.7409 9 16.0492 9 18.7492C9 21.4492 9.95763 23.7576 11.8729 25.6742C13.7882 27.5909 16.1139 28.5492 18.85 28.5492Z" fill="#94C5F2"/>
</svg>
